<svg xmlns="http://www.w3.org/2000/svg" viewBox="0 0 120 120" role="img" aria-labelledby="title"><title>Hotel building icon</title><rect x="20" y="14" width="80" height="92" rx="6" fill="#facc15"/><rect x="29" y="24" width="62" height="73" rx="2" fill="#172033"/><path d="M38 34h10v10H38zm17 0h10v10H55zm17 0h10v10H72zM38 51h10v10H38zm17 0h10v10H55zm17 0h10v10H72zM38 68h10v10H38zm17 0h10v10H55zm17 0h10v10H72z" fill="#facc15"/><path d="M48 97V84h24v13" fill="#facc15"/><path d="M14 106h92" stroke="#facc15" stroke-width="6" stroke-linecap="round"/></svg>