<svg xmlns="http://www.w3.org/2000/svg" viewBox="0 0 24 24" role="img" aria-labelledby="title"><title>Python</title><path fill="#2563EB" d="M12 2c-3.1 0-3.75 1.55-3.75 1.55v2.32h3.82v.7H6.75C3.4 6.57 2.8 9.2 2.8 9.2S1.9 12.3 2.8 14.3c.87 1.98 3.34 1.82 3.34 1.82h2v-2.7s-.11-3.24 3.2-3.24h5.48s3.08.05 3.08-2.98V5.18S19.44 2 12 2Zm-2.1 1.62a.75.75 0 1 1 0 1.5.75.75 0 0 1 0-1.5Z"/><path fill="#14B8A6" d="M12 22c3.1 0 3.75-1.55 3.75-1.55v-2.32h-3.82v-.7h5.32c3.35 0 3.95-2.63 3.95-2.63s.9-3.1 0-5.1c-.87-1.98-3.34-1.82-3.34-1.82h-2v2.7s.11 3.24-3.2 3.24H7.18S4.1 13.77 4.1 16.8v2.02S4.56 22 12 22Zm2.1-1.62a.75.75 0 1 1 0-1.5.75.75 0 0 1 0 1.5Z"/></svg>